PathFileType	4	(X/Y/Z)	20_2_78_p1_0-270.trc
DataRate	CameraRate	NumFrames	NumMarkers	Units	OrigDataRate	OrigDataStartFrame	OrigNumFrames
59.0	59.0	7	27	m	59.0	33	271
Frame#	Time	RHip			RKnee			RAnkle			RBigToe			RSmallToe			RHeel			LHip			LKnee			LAnkle			LBigToe			LSmallToe			LHeel			Neck			Head			Nose			RShoulder			RElbow			RWrist			RThumb			RIndex			RPinky			LShoulder			LElbow			LWrist			LThumb			LIndex			LPinky			
		X1	Y1	Z1	X2	Y2	Z2	X3	Y3	Z3	X4	Y4	Z4	X5	Y5	Z5	X6	Y6	Z6	X7	Y7	Z7	X8	Y8	Z8	X9	Y9	Z9	X10	Y10	Z10	X11	Y11	Z11	X12	Y12	Z12	X13	Y13	Z13	X14	Y14	Z14	X15	Y15	Z15	X16	Y16	Z16	X17	Y17	Z17	X18	Y18	Z18	X19	Y19	Z19	X20	Y20	Z20	X21	Y21	Z21	X22	Y22	Z22	X23	Y23	Z23	X24	Y24	Z24	X25	Y25	Z25	X26	Y26	Z26	X27	Y27	Z27	
33	0.559322033898305	0.36106147158623647	0.6094795761749761	0.9880685322940093	0.3589004369880674	0.7122980464084452	1.3700406706017818	0.3572769595849897	0.8268816883714991	1.747456525612051	0.31042947302302215	0.6177249249808667	1.7964138688214326	0.37755829035225824	0.6440533546837982	1.797182735853258	0.3338089232407443	0.9138006110143926	1.806678301877798	0.1613009280370195	0.6081848817409923	0.9823093893492899	0.15365830214960435	0.7067215702424839	1.3411951325731382	0.14209270880907912	0.8188722133655479	1.7145977486548207	0.14853039143153063	0.637292582075841	1.788196438484333	0.09425288792001357	0.6945376583818411	1.795998881092884	0.15885653212956577	0.8877796702574199	1.7689636136523421	0.24597024989053054	0.47424100634339067	0.44026195610968644	0.24761993209194447	0.34082529344358586	0.2115242001651472	0.22328552735846036	0.28757893512831334	0.3421948737143492	0.3900132114923132	0.4378279043351354	0.5301098228153424	0.45788610373254207	0.5466518810276497	0.7860871688358865	0.3051989925265621	0.3767777672430313	0.9288003719572643	0.19066708531022544	0.32868547422625694	0.9584338751846543	0.19547211984020882	0.3222531676375307	0.9726996819327852	0.2304939364186976	0.39259565519544337	1.033322625598144	0.10914857419339724	0.5029418976311524	0.5256828064699477	0.06461206349425186	0.5148417978530764	0.7689595455465077	0.20203576651723898	0.38852620924127934	0.913792245076037	0.21888064591286777	0.34006202940903707	0.9670847248078237	0.21731437777265544	0.33193276556091356	0.9810616541607194	0.21852927774181757	0.3642004506282838	0.9878027629880963
34	0.576271186440678	0.3643751727905643	0.5943488492304054	0.9866520879521173	0.3588825877361867	0.7123536257845039	1.3700782430473033	0.35643075892473375	0.8285795099563593	1.7520378231637865	0.310483508066206	0.617573527469491	1.7964133039136654	0.3775980784251944	0.6439526784883871	1.7971900415086912	0.33402799992411336	0.9135873190594509	1.8070358237623243	0.1567510958671564	0.6083361928380234	0.9861550497379767	0.15286205288889126	0.7081102667873329	1.3457695043219398	0.1431308226950419	0.8172113942151191	1.7096019966493774	0.14752736599863991	0.6389355466281669	1.792240288794598	0.0942186344366852	0.69442025982454	1.7958931166177696	0.15875738144548174	0.888906948019875	1.765006275124944	0.245958999097656	0.4743243443432641	0.4402910126083083	0.2477677796465502	0.3425793385684223	0.21457557864718135	0.22324424143636726	0.2875846475957714	0.34215264805658685	0.38980299712467403	0.4381768014919348	0.5267091277739426	0.45754772950393047	0.5473716469979939	0.7898157775375582	0.3054724834144873	0.3766337190317768	0.9214882299467237	0.19465804980598997	0.3150247915317886	0.9604689885015797	0.2001500409043217	0.3172555799060241	0.9682358599630144	0.23136685075862742	0.39073232688051995	1.0242866370558705	0.10882981975931035	0.5007040447638094	0.5227639116312156	0.06348430491475666	0.5236886680693772	0.7657905638405813	0.19926544786974873	0.3778770110161286	0.9125648669892259	0.21758927191690486	0.3129639280691346	0.9601369751341873	0.22364885713659893	0.3022690888827178	0.9699579642676525	0.22186190239869114	0.37576698776264317	0.9856606894299541
35	0.5932203389830508	0.3611144824945172	0.6092435135532759	0.9883303592570807	0.3546488726616926	0.7111111973287901	1.3699143398907054	0.35638503390848936	0.8286621844910109	1.7520820788147438	0.3105135782111211	0.6177970918733502	1.7964710841737777	0.3776921952017156	0.6441740669749888	1.7972830832494666	0.33398826109993035	0.9135593677826525	1.8071042713376257	0.15273226663273295	0.6211574582867049	0.9839383943169193	0.15371919756681415	0.7064466042535308	1.3414215614368261	0.14206185839759367	0.818719316311247	1.714338082086652	0.14748949595327634	0.6391115259026492	1.792292249804068	0.09406907148501974	0.6945948632107933	1.795885163023459	0.15894329654336886	0.8874688866633679	1.768804286120085	0.2459897795608054	0.4744467264400358	0.4403679244225034	0.24769620597520547	0.3432813537507429	0.21770156132514765	0.22317985334645615	0.28762970295768286	0.3422356445620015	0.3858293622901796	0.437594938664139	0.5267453857321676	0.4576785211378756	0.5472190205238857	0.7898304903789977	0.30478750185230263	0.37533090808949154	0.9131585562876287	0.19884560547923363	0.31767250489230864	0.9608781997806488	0.20034919380241853	0.31935499399821066	0.9657153730353718	0.23095638277050207	0.39261158364098525	1.0199872124317584	0.10913545015555327	0.5027690322379977	0.5261396899693863	0.056132691060624934	0.5276343353461179	0.769683991149525	0.19566120281819582	0.38539256243821773	0.9103694897385383	0.22207298107902076	0.3477629378286707	0.9640993247287453	0.22856706885326603	0.3409825361913402	0.974280806646064	0.22678946151292462	0.38579618303327373	0.9893187979147067
36	0.6101694915254238	0.36402454739361284	0.5939062318064733	0.9859222806561939	0.354598502089115	0.7110866304815958	1.3703343265266275	0.3515825225958775	0.8127011169653191	1.74682174823619	0.3104492272147526	0.6176696850291157	1.7965195619479475	0.3776705164353574	0.6437695520317408	1.7972221556606556	0.3288551226242242	0.8975850885933659	1.8019353964375673	0.15676533936499776	0.6231288392548318	0.9836848497487526	0.14947158725921242	0.7054204402851006	1.3411265351988746	0.14219209571309294	0.8184853283379839	1.7145526053918474	0.14538569686177313	0.6221716381703905	1.7825808184432503	0.09542539242937874	0.6921185655714613	1.791385647570537	0.15927771435877702	0.8868025868494442	1.7689245577564316	0.24588476214402694	0.4747109939399038	0.44026061148277895	0.247765596369172	0.3434055987962023	0.2176576906054833	0.22298697014444074	0.2858552375697215	0.3423832902946319	0.3858739074478482	0.4378862352979256	0.526722416228392	0.46060251985688	0.5316931707210927	0.7852892960084464	0.31197809985698777	0.3750422037455452	0.9124563044063627	0.19484999351934681	0.32871768537752555	0.9576840791197898	0.19223707960816325	0.3147926984617578	0.9602797570336851	0.22379080046294925	0.36589464010576367	1.0090459029700738	0.10917396018441235	0.5031576046341111	0.5260569904245064	0.0637780799535415	0.543256102239036	0.7704412166340238	0.19484107828871192	0.37354004063578816	0.9084820001204689	0.21424873474614933	0.32358850437303804	0.9573894001837193	0.2205084903730769	0.314221117964681	0.964792786873671	0.22626131842589922	0.38336375524431576	0.9832288106477158
37	0.6271186440677966	0.36379373283207966	0.593556784424834	0.9859867575076544	0.35461924921086735	0.7108251838886213	1.370567598636843	0.35164519655423887	0.8127907640286463	1.7469589723212766	0.31049871156281506	0.6164629145268	1.795973146890712	0.37753906244017094	0.6426443893088359	1.7968132618828374	0.33407675478861476	0.913273826610217	1.8073772132401325	0.1527860644275513	0.6208248123242597	0.9874402347812131	0.14857785258329176	0.7068964954487396	1.345713489390392	0.14216508567090222	0.8186313240508989	1.714627028668356	0.14907029087210447	0.6078008743259139	1.7771207406460532	0.09433700638746433	0.6940131282452096	1.7956427042467826	0.1594039690927922	0.8875066057949237	1.7695235188126328	0.24182469011554522	0.47422712066295075	0.4404466591343783	0.25205281773755794	0.34424440995214683	0.2174883267610482	0.2229581208339824	0.2859783830260539	0.34239565316138143	0.38601180387455286	0.4372281183766197	0.5301683916572638	0.4589541210528783	0.5488241204066994	0.7898856982107371	0.30807209939581826	0.362882127791274	0.9111049759660362	0.19352842880077525	0.33064795052981216	0.9536443089539058	0.19495223906534215	0.32964632483142264	0.9580596312447078	0.22653515268389682	0.3973478105237756	1.00793031848779	0.10877737999081769	0.503881923430659	0.5298839978215845	0.06334393540582532	0.5412303412916588	0.7669181606997614	0.1903769581955371	0.38410051641833987	0.9066955739327525	0.2212109473509558	0.3119755211183221	0.9481174417506271	0.2247303576832082	0.3164683933996489	0.9608127005577062	0.2226954284190793	0.37357910629780605	0.9782474536795429
38	0.6440677966101694	0.3642027776998044	0.5936351884277474	0.9863570603858289	0.3546248053629035	0.7110158721762585	1.3704320204621054	0.3516329778735457	0.8128425846203785	1.746981954631597	0.3106046616349157	0.6163199126192886	1.7959617557573215	0.37772333246455037	0.6431259331118716	1.7970619405018111	0.33414949794531335	0.9132816004930675	1.8075484639602655	0.1567800608702825	0.6079819284359382	0.9898376060154385	0.14862244710729228	0.7067905865646116	1.3456842469825443	0.14218012388025061	0.8187529057252949	1.7146861883485314	0.15136029396474032	0.6238352046752645	1.7866037636103207	0.09431955149503814	0.6940127792578891	1.7956159370752245	0.16388704831562492	0.9036699921834082	1.7753151903018316	0.24180515112628945	0.4742917239364192	0.4405041648801405	0.25178959810742574	0.3424820749888363	0.21453918745492745	0.22322564376418264	0.28773642349152	0.3455225181363708	0.38600151429159546	0.43730928011520975	0.5302817466321158	0.4579986666841628	0.5465607433542387	0.777811253390258	0.3165936436393899	0.37531125541538923	0.9048009529376628	0.19686115520492953	0.31558946084119144	0.9436210085516656	0.1950398869617641	0.3021074783541814	0.9537865263303987	0.2193889896868566	0.3677393648159862	0.9930106497617234	0.10856513472122478	0.5019958060404804	0.5268477533748789	0.05958807209586955	0.5578926535053603	0.7750267498933888	0.1822634714862061	0.3964288551726457	0.9043026842495141	0.2287290670912768	0.312014991709012	0.9408825805046946	0.24888375257513062	0.34026324480025577	0.9633482248498256	0.23034671914181	0.38645899096974884	0.9773491600472819
39	0.6610169491525424	0.36405753753834313	0.5935928015579183	0.9863514016117061	0.3546426679219802	0.7109555135517833	1.3704109394183046	0.351637476218418	0.8128287412197336	1.7469014362867723	0.3105387292587928	0.6157179516480783	1.7957227531026985	0.3778303346271336	0.642784250413808	1.7969952632509727	0.33405453200033514	0.913114047841633	1.8072308089896305	0.15327665107263194	0.6059913286151005	0.986650339352611	0.14951855728536095	0.709847544731033	1.351007619603654	0.14218827934958977	0.8188447209258114	1.7146943995716182	0.15237524261550944	0.6220175718992423	1.782460747339355	0.09442711295464001	0.6938033550929422	1.7955211272436034	0.16379858116190937	0.9038170529947187	1.7752081079216684	0.24175207736122492	0.47439528554908944	0.44049255202272586	0.2441314454642594	0.33216706464144935	0.21950621449059463	0.21946248671479723	0.28635851010278673	0.34579658230737875	0.38594487869898	0.4371905003785413	0.5302873117000895	0.45809359898036817	0.5466089205189811	0.7859905500840072	0.31667799671604024	0.3751917016962563	0.9045618867066175	0.19602906415404855	0.3186395524689295	0.9333575930935486	0.19747188961292836	0.31556657467541865	0.9511566835866874	0.22241519626624512	0.3791821168714362	0.9894623872908199	0.10847074417075984	0.5019509817828126	0.526914728498276	0.05877171574569942	0.554684476799687	0.771004666935714	0.1737275139606122	0.3924158317337278	0.9008432203731656	0.23119642682240543	0.28648146182906836	0.9272552912318541	0.2378290240010412	0.2739578064787905	0.9476255989421769	0.2210633403718847	0.36720958281338667	0.9721010877901564
